<mxfile host="app.diagrams.net" modified="2021-04-08T23:08:57.443Z" agent="5.0 (Macintosh; Intel Mac OS X 10_15_6) AppleWebKit/605.1.15 (KHTML, like Gecko) Version/14.0.3 Safari/605.1.15" etag="yvRNl1abm0sjnElqLkBH" version="14.5.8" type="github">
  <diagram id="HbnOtPvDr0ToM9f2H4vp" name="Page-1">
    <mxGraphModel dx="823" dy="1191" grid="1" gridSize="10" guides="1" tooltips="1" connect="1" arrows="1" fold="1" page="1" pageScale="1" pageWidth="827" pageHeight="1169" math="0" shadow="0">
      <root>
        <mxCell id="0" />
        <mxCell id="1" parent="0" />
        <object label="" placeholders="1" id="91aLiDHRutacnfMlB_BF-1">
          <mxCell style="rounded=1;whiteSpace=wrap;html=1;" parent="1" vertex="1">
            <mxGeometry x="170" y="280" width="190" height="140" as="geometry" />
          </mxCell>
        </object>
        <mxCell id="AedMZxpPsmfwWDAb1pMr-2" style="edgeStyle=orthogonalEdgeStyle;rounded=0;orthogonalLoop=1;jettySize=auto;html=1;exitX=0.5;exitY=0;exitDx=0;exitDy=0;entryX=1;entryY=0.5;entryDx=0;entryDy=0;" edge="1" parent="1" source="AedMZxpPsmfwWDAb1pMr-1" target="91aLiDHRutacnfMlB_BF-1">
          <mxGeometry relative="1" as="geometry">
            <mxPoint x="355" y="599.9999999999998" as="targetPoint" />
          </mxGeometry>
        </mxCell>
        <object label="Clear" id="AedMZxpPsmfwWDAb1pMr-1">
          <mxCell style="text;html=1;strokeColor=none;fillColor=none;align=center;verticalAlign=middle;whiteSpace=wrap;rounded=0;" vertex="1" parent="1">
            <mxGeometry x="420" y="560" width="290" height="20" as="geometry" />
          </mxCell>
        </object>
      </root>
    </mxGraphModel>
  </diagram>
</mxfile>
